<svg xmlns="http://www.w3.org/2000/svg" width="960" height="620" viewBox="0 0 960 620"><rect x="0" y="0" width="960" height="620" fill="#ffffff"/>
<text x="12" y="20" font-size="13" font-family="monospace" fill="#111827">aft_fuselage_engine parent + receiver priors / side (x/z)</text>
<polygon points="740.18,469.80 778.92,463.83 778.92,454.73 747.73,433.68 740.18,464.47" fill="none" stroke="#94a3b8" stroke-width="1.00"><title>whole_airframe_region</title></polygon>
<polygon points="596.97,339.05 597.85,447.21 747.73,444.89 747.73,433.68 678.43,365.36" fill="none" stroke="#94a3b8" stroke-width="1.00"><title>whole_airframe_region</title></polygon>
<polygon points="590.24,400.10 604.02,413.25 713.75,435.32 717.07,429.67 719.48,425.21 720.35,422.45 720.83,420.66 720.91,419.40 694.00,377.97 682.28,361.93 673.77,352.15 665.26,343.86 656.24,338.86 647.23,335.37 638.15,333.62 629.07,333.37 614.61,335.22 600.14,338.15 596.97,339.05 590.43,392.74 590.40,393.69" fill="none" stroke="#94a3b8" stroke-width="1.00"><title>whole_airframe_region</title></polygon>
<polygon points="399.84,396.48 443.02,435.13 574.08,447.14 597.85,447.21 604.05,412.30 603.73,403.36 602.22,367.00 596.97,339.05 402.91,388.36 400.94,391.50 400.39,393.94" fill="none" stroke="#94a3b8" stroke-width="1.00"><title>whole_airframe_region</title></polygon>
<polygon points="624.63,374.12 635.17,483.79 642.41,490.73 671.80,508.49 684.54,508.78 684.44,505.62 669.55,415.82 657.74,378.01 650.31,354.76 648.26,349.10 643.04,347.89 631.79,351.52" fill="none" stroke="#94a3b8" stroke-width="1.00"><title>whole_airframe_region</title></polygon>
<polygon points="183.70,401.47 194.97,505.07 377.67,497.16 402.91,388.36 361.74,343.39 280.88,325.09 262.72,322.41 190.46,322.41 183.70,390.22" fill="none" stroke="#94a3b8" stroke-width="1.00"><title>whole_airframe_region</title></polygon>
<polygon points="125.61,524.95 126.52,527.10 137.22,535.77 164.17,547.26 194.55,531.76 194.55,497.86 194.55,421.91 164.17,402.54 137.22,416.72 126.52,426.49 125.61,428.71" fill="none" stroke="#94a3b8" stroke-width="1.00"><title>whole_airframe_region</title></polygon>
<polygon points="301.94,474.56 301.97,476.38 380.25,481.81 398.61,481.81 496.17,477.98 462.91,462.36 339.45,466.21" fill="none" stroke="#94a3b8" stroke-width="1.00"><title>whole_airframe_region</title></polygon>
<polygon points="301.94,474.56 301.98,476.38 380.25,481.81 398.61,481.81 496.17,477.98 462.91,462.36 339.45,466.21" fill="none" stroke="#94a3b8" stroke-width="1.00"><title>whole_airframe_region</title></polygon>
<polygon points="339.45,477.12 377.67,486.48 507.71,487.28 507.78,426.71 507.73,390.98 377.67,395.74 339.45,466.21" fill="none" stroke="#94a3b8" stroke-width="1.00"><title>whole_airframe_region</title></polygon>
<polygon points="339.45,477.12 377.67,486.48 507.71,487.28 507.78,426.71 507.73,390.98 377.67,395.74 339.45,466.21" fill="none" stroke="#94a3b8" stroke-width="1.00"><title>whole_airframe_region</title></polygon>
<polygon points="104.77,495.86 105.56,504.16 116.91,510.77 145.02,513.59 159.41,512.21 162.14,510.82 231.44,474.97 241.43,468.09 231.44,461.20 177.15,447.91 133.77,456.70 118.01,468.09 104.77,494.80" fill="none" stroke="#94a3b8" stroke-width="1.00"><title>whole_airframe_region</title></polygon>
<polygon points="104.77,495.86 105.56,504.16 116.91,510.77 145.02,513.59 159.41,512.21 162.14,510.82 231.44,474.97 241.43,468.09 231.44,461.20 177.15,447.91 133.77,456.70 118.01,468.09 104.77,494.80" fill="none" stroke="#94a3b8" stroke-width="1.00"><title>whole_airframe_region</title></polygon>
<polygon points="94.44,78.88 100.51,122.73 111.49,174.77 153.40,325.09 190.46,322.41 124.22,70.19 105.29,70.19" fill="none" stroke="#94a3b8" stroke-width="1.00"><title>whole_airframe_region</title></polygon>
<polygon points="183.70,401.47 194.97,505.07 377.67,497.16 402.91,388.36 361.74,343.39 280.88,325.09 262.72,322.41 190.46,322.41 183.70,390.22" fill="none" stroke="#2563eb" stroke-width="2.50"><title>parent_mesh_region</title></polygon>
<rect x="325.71" y="380.52" width="23.07" height="7.65" rx="3.82" ry="3.82" fill="#16a34a" fill-opacity="0.92" stroke="#16a34a" stroke-width="2.20"><title>electrical_power_bus capsule primary</title></rect>
<rect x="183.70" y="341.96" width="78.94" height="150.50" rx="39.47" ry="39.47" fill="#be123c" fill-opacity="0.78" stroke="#7f1d1d" stroke-width="3.00"><title>engine_core:engine_core_afterburner_segment capsule held-segment</title></rect>
<rect x="252.00" y="341.96" width="78.94" height="150.50" rx="39.47" ry="75.25" fill="#be123c" fill-opacity="0.78" stroke="#7f1d1d" stroke-width="3.00"><title>engine_core:engine_core_hot_section_segment ellipsoid held-segment</title></rect>
<rect x="320.69" y="341.96" width="78.94" height="150.50" rx="39.47" ry="75.25" fill="#be123c" fill-opacity="0.78" stroke="#7f1d1d" stroke-width="3.00"><title>engine_core:engine_core_forward_compressor_segment ellipsoid held-segment</title></rect>
<rect x="216.75" y="402.27" width="12.81" height="22.94" fill="#0891b2" fill-opacity="0.92" stroke="#0891b2" stroke-width="2.20"><title>tail_hydraulic_pump obb extra</title></rect>
<rect x="221.39" y="369.28" width="16.43" height="18.29" fill="#0891b2" fill-opacity="0.92" stroke="#0891b2" stroke-width="2.20"><title>engine_fuel_control_unit obb extra</title></rect>
<text x="12" y="608" font-size="10" font-family="monospace" fill="#475569">gray=whole-airframe wireframe; blue=parent semantic region; green/cyan=actual-size receiver prior; red=held split segment</text></svg>