{
  "accessors": [
    {
      "bufferView": 2,
      "componentType": 5126,
      "count": 3720,
      "max": [
        1.9489109516143799,
        0.28558602929115295,
        0.2871265411376953
      ],
      "min": [
        -1.6510889530181885,
        -0.28555482625961304,
        -0.28401437401771545
      ],
      "type": "VEC3"
    },
    {
      "bufferView": 2,
      "byteOffset": 44640,
      "componentType": 5126,
      "count": 3720,
      "max": [
        1.0,
        1.0,
        1.0
      ],
      "min": [
        -1.0,
        -1.0,
        -1.0
      ],
      "type": "VEC3"
    },
    {
      "bufferView": 3,
      "componentType": 5126,
      "count": 3720,
      "max": [
        1.0,
        1.0,
        1.0,
        1.0
      ],
      "min": [
        -1.0,
        -0.9999997615814209,
        -1.0,
        1.0
      ],
      "type": "VEC4"
    },
    {
      "bufferView": 1,
      "componentType": 5126,
      "count": 3720,
      "max": [
        0.9884119629859924,
        0.9996263384819031
      ],
      "min": [
        0.011587902903556824,
        0.00037371923099271953
      ],
      "type": "VEC2"
    },
    {
      "bufferView": 1,
      "byteOffset": 29760,
      "componentType": 5126,
      "count": 3720,
      "max": [
        0.9884119629859924,
        0.9996263384819031
      ],
      "min": [
        0.011587902903556824,
        0.00037371923099271953
      ],
      "type": "VEC2"
    },
    {
      "bufferView": 1,
      "byteOffset": 59520,
      "componentType": 5126,
      "count": 3720,
      "max": [
        0.9884119629859924,
        0.9996263384819031
      ],
      "min": [
        0.011587902903556824,
        0.00037371923099271953
      ],
      "type": "VEC2"
    },
    {
      "bufferView": 0,
      "componentType": 5125,
      "count": 7530,
      "type": "SCALAR"
    }
  ],
  "asset": {
    "extras": {
      "author": "Mustafa.Garip (https://sketchfab.com/Mustafa.Garip)",
      "license": "CC-BY-4.0 (http://creativecommons.org/licenses/by/4.0/)",
      "source": "https://sketchfab.com/3d-models/game-ready-low-poly-r-77-0da27c5b53f24542843a4a423c59b96a",
      "title": "Game Ready Low Poly R-77"
    },
    "generator": "Sketchfab-13.88.0",
    "version": "2.0"
  },
  "bufferViews": [
    {
      "buffer": 0,
      "byteLength": 30120,
      "name": "floatBufferViews",
      "target": 34963
    },
    {
      "buffer": 0,
      "byteLength": 89280,
      "byteOffset": 30120,
      "byteStride": 8,
      "name": "floatBufferViews",
      "target": 34962
    },
    {
      "buffer": 0,
      "byteLength": 89280,
      "byteOffset": 119400,
      "byteStride": 12,
      "name": "floatBufferViews",
      "target": 34962
    },
    {
      "buffer": 0,
      "byteLength": 59520,
      "byteOffset": 208680,
      "byteStride": 16,
      "name": "floatBufferViews",
      "target": 34962
    }
  ],
  "buffers": [
    {
      "byteLength": 268200,
      "uri": "scene.bin"
    }
  ],
  "images": [
    {
      "uri": "textures/R-77_material_baseColor.png"
    },
    {
      "uri": "textures/R-77_material_metallicRoughness.png"
    },
    {
      "uri": "textures/R-77_material_normal.png"
    }
  ],
  "materials": [
    {
      "doubleSided": true,
      "name": "R-77_material",
      "normalTexture": {
        "index": 2,
        "texCoord": 1
      },
      "pbrMetallicRoughness": {
        "baseColorTexture": {
          "index": 0
        },
        "metallicFactor": 0.0,
        "metallicRoughnessTexture": {
          "index": 1
        }
      }
    }
  ],
  "meshes": [
    {
      "name": "R-77_R-77_material_0",
      "primitives": [
        {
          "attributes": {
            "NORMAL": 1,
            "POSITION": 0,
            "TANGENT": 2,
            "TEXCOORD_0": 3,
            "TEXCOORD_1": 4,
            "TEXCOORD_2": 5
          },
          "indices": 6,
          "material": 0,
          "mode": 4
        }
      ]
    }
  ],
  "nodes": [
    {
      "children": [
        1
      ],
      "matrix": [
        1.0,
        0.0,
        0.0,
        0.0,
        0.0,
        2.220446049250313e-16,
        -1.0,
        0.0,
        0.0,
        1.0,
        2.220446049250313e-16,
        0.0,
        0.0,
        0.0,
        0.0,
        1.0
      ],
      "name": "Sketchfab_model"
    },
    {
      "children": [
        2
      ],
      "matrix": [
        0.009999999776482582,
        0.0,
        0.0,
        0.0,
        0.0,
        0.0,
        0.009999999776482582,
        0.0,
        0.0,
        -0.009999999776482582,
        0.0,
        0.0,
        0.0,
        0.0,
        0.0,
        1.0
      ],
      "name": "R77 Vympel.fbx"
    },
    {
      "children": [
        3
      ],
      "name": "RootNode"
    },
    {
      "children": [
        4
      ],
      "matrix": [
        100.0,
        0.0,
        0.0,
        0.0,
        -0.0,
        -1.629206793918314e-05,
        -99.99999999999868,
        0.0,
        0.0,
        99.99999999999868,
        -1.629206793918314e-05,
        0.0,
        -1.9259299443872359e-32,
        0.0,
        0.0,
        1.0
      ],
      "name": "R-77"
    },
    {
      "mesh": 0,
      "name": "R-77_R-77_material_0"
    }
  ],
  "samplers": [
    {
      "magFilter": 9729,
      "minFilter": 9987,
      "wrapS": 10497,
      "wrapT": 10497
    }
  ],
  "scene": 0,
  "scenes": [
    {
      "name": "Sketchfab_Scene",
      "nodes": [
        0
      ]
    }
  ],
  "textures": [
    {
      "sampler": 0,
      "source": 0
    },
    {
      "sampler": 0,
      "source": 1
    },
    {
      "sampler": 0,
      "source": 2
    }
  ]
}
